<svg width="14" height="13" viewBox="0 0 14 13" fill="none" xmlns="http://www.w3.org/2000/svg">
<path d="M13.7188 7.66577C13.9062 7.45744 14 7.21785 14 6.94702C14 6.67619 13.9062 6.4366 13.7188 6.22827L8.71875 1.22827C8.51042 1.04077 8.27083 0.947021 8 0.947021C7.72917 0.947021 7.48958 1.04077 7.28125 1.22827C7.09375 1.4366 7 1.67619 7 1.94702C7 2.21785 7.09375 2.45744 7.28125 2.66577L10.5938 5.94702H1C0.708333 5.94702 0.46875 6.04077 0.28125 6.22827C0.09375 6.41577 0 6.65535 0 6.94702C0 7.23869 0.09375 7.47827 0.28125 7.66577C0.46875 7.85327 0.708333 7.94702 1 7.94702H10.5938L7.28125 11.2283C7.09375 11.4366 7 11.6762 7 11.947C7 12.2179 7.09375 12.4574 7.28125 12.6658C7.48958 12.8533 7.72917 12.947 8 12.947C8.27083 12.947 8.51042 12.8533 8.71875 12.6658L13.7188 7.66577Z" fill="#F7F7F7"/>
</svg>
