<svg width="56" height="56" viewBox="0 0 56 56" fill="none" xmlns="http://www.w3.org/2000/svg">
<circle cx="28" cy="28" r="27" fill="#151203" stroke="#00010B" stroke-width="2"/>
<path d="M17.8811 37.1848H13L16.3828 18H21.2639L17.8811 37.1848Z" fill="#F7F7F7"/>
<path d="M24.5379 32.304H21.6995C21.1356 32.304 20.6783 32.7612 20.6783 33.3252V36.1636C20.6783 36.7276 21.1356 37.1848 21.6995 37.1848H24.5379C25.1019 37.1848 25.5591 36.7276 25.5591 36.1636V33.3252C25.5591 32.7612 25.1019 32.304 24.5379 32.304Z" fill="#F7F7F7"/>
<path d="M36.264 18H31.3832L28.0004 37.1848H32.8812L36.264 18Z" fill="#F7F7F7"/>
<path d="M41.9789 18H39.1405C38.5765 18 38.1193 18.4572 38.1193 19.0212V21.8596C38.1193 22.4236 38.5765 22.8808 39.1405 22.8808H41.9789C42.5429 22.8808 43.0001 22.4236 43.0001 21.8596V19.0212C43.0001 18.4572 42.5429 18 41.9789 18Z" fill="#F7F7F7"/>
</svg>
