<svg width="120" height="59" viewBox="0 0 120 59" fill="none" xmlns="http://www.w3.org/2000/svg">
<path fill-rule="evenodd" clip-rule="evenodd" d="M81.9231 4.77941C81.7598 4.82317 81.5958 4.86714 81.4311 4.91125C67.3425 8.68457 28.2605 21.2819 9.58464 27.3017C6.28162 28.3664 3.6169 29.2253 1.84163 29.7933C1.0993 30.0308 0.304995 29.6215 0.0674956 28.8792C-0.170004 28.1369 0.239241 27.3426 0.98157 27.1051C2.74086 26.5422 5.38848 25.6888 8.6748 24.6294C27.3215 18.6188 66.531 5.97998 80.7009 2.1849C80.8684 2.14005 81.0356 2.09522 81.2025 2.05049C83.0838 1.5462 84.9185 1.05442 86.5014 0.682474C88.1777 0.288551 89.7382 -0.0136924 90.8056 0.000478547C91.0855 0.00419518 91.3938 0.0293341 91.6922 0.107272C91.9769 0.181669 92.3841 0.338147 92.7117 0.701024C93.0854 1.11498 93.2065 1.62986 93.1541 2.1013C93.1081 2.51566 92.9352 2.86625 92.776 3.12356C92.4566 3.63991 91.9332 4.18722 91.2912 4.76229C90.628 5.3564 89.7533 6.05403 88.6513 6.86768C84.5284 9.91181 80.2367 12.7339 75.9878 15.5278C74.135 16.7461 72.2904 17.9591 70.4714 19.1828C64.4469 23.2358 58.6352 27.4491 53.4368 32.5176C53.4371 32.5173 53.4351 32.5194 53.4306 32.5241C53.4046 32.5514 53.296 32.6651 53.1011 32.8742C52.8884 33.1026 52.5968 33.4188 52.2573 33.7933C51.5772 34.5438 50.7122 35.5204 49.9071 36.4898C49.3917 37.1104 48.9187 37.7068 48.538 38.2278C49.3547 38.1791 50.19 38.0635 51.0525 37.9097C51.8153 37.7736 52.5809 37.6114 53.3713 37.4438L53.3829 37.4413C54.162 37.2761 54.9658 37.1056 55.7718 36.962C68.4607 34.7017 81.0316 31.8747 93.6438 29.0382C94.6991 28.8009 95.8004 28.5491 96.933 28.2901C102.15 27.0973 108.032 25.7524 113.156 24.967C113.504 24.9136 113.855 24.8512 114.226 24.7852L114.375 24.7587C114.794 24.6843 115.237 24.6072 115.685 24.5449C116.581 24.4206 117.562 24.3461 118.574 24.477C119.355 24.5779 119.776 25.155 119.92 25.6301C120.04 26.0261 120.001 26.3979 119.958 26.6273C119.909 26.8838 119.822 27.1379 119.707 27.3651C119.602 27.5718 119.418 27.8685 119.118 28.1038C118.554 28.5461 117.435 29.1825 116.205 29.841C114.93 30.5233 113.406 31.2968 111.938 32.0266C110.467 32.7571 109.045 33.4479 107.97 33.9655C107.433 34.2244 106.983 34.4401 106.657 34.596L106.267 34.7824L106.153 34.8371C106.14 34.8433 106.131 34.8479 106.124 34.8511L106.111 34.8574C104.541 35.6404 102.953 36.412 101.362 37.1853C94.9305 40.3115 88.4424 43.4649 82.8112 47.507C82.78 47.5294 82.7475 47.5526 82.7138 47.5766C82.508 47.7236 82.2592 47.9013 82.0035 48.1098C81.8972 48.1965 81.8001 48.2804 81.7134 48.3601C84.5967 49.1057 87.9816 49.245 91.4939 49.1495C93.2876 49.1007 95.0883 48.992 96.8509 48.8794C97.0533 48.8665 97.2553 48.8535 97.4569 48.8405C99.0011 48.7412 100.516 48.6438 101.934 48.5908C102.12 48.5838 102.696 48.5548 103.514 48.5135C106.73 48.3513 113.698 47.9998 115.501 48.0565C116.219 48.0791 116.963 48.2088 117.558 48.6196C118.259 49.1032 118.553 49.833 118.537 50.5607C118.522 51.189 118.282 51.7782 118.039 52.2427C117.784 52.7312 117.448 53.2253 117.098 53.693C116.548 54.4264 115.881 55.199 115.293 55.8791C115.139 56.0568 114.991 56.2282 114.852 56.391C114.503 56.799 114.211 57.1518 113.991 57.4476C113.771 57.7446 113.701 57.8844 113.691 57.9049C113.69 57.9071 113.689 57.9079 113.689 57.9074C113.443 58.6468 112.644 59.0464 111.904 58.7999C111.165 58.5534 110.765 57.7542 111.012 57.0148C111.164 56.5588 111.468 56.1121 111.724 55.7661C112.006 55.3864 112.353 54.9707 112.707 54.5569C112.868 54.368 113.032 54.1786 113.195 53.9892C113.775 53.318 114.355 52.6467 114.839 52.0002C115.146 51.5908 115.382 51.2336 115.537 50.936C115.547 50.9185 115.555 50.9016 115.563 50.8852C115.518 50.882 115.467 50.8793 115.412 50.8776C113.753 50.8254 107.28 51.1509 103.947 51.3185C102.988 51.3668 102.289 51.4019 102.04 51.4112C100.662 51.4627 99.188 51.5575 97.6381 51.6571C97.437 51.67 97.2345 51.6831 97.0309 51.6961C95.2672 51.8088 93.4209 51.9206 91.5705 51.9709C87.8878 52.071 84.083 51.9324 80.7437 51.0229C79.936 50.8029 78.9967 50.369 78.6311 49.4061C78.2561 48.4187 78.7353 47.5547 79.0415 47.1249C79.3856 46.6421 79.8489 46.2249 80.2196 45.9226C80.5518 45.6516 80.88 45.4177 81.0828 45.273C81.1133 45.2513 81.141 45.2316 81.1654 45.214C87.0125 41.017 93.7792 37.7299 100.23 34.5962C101.795 33.8359 103.342 33.0846 104.852 32.3315C104.889 32.3129 105.04 32.2406 105.279 32.1264C105.617 31.9648 106.13 31.7192 106.745 31.4229C107.813 30.9081 109.225 30.2227 110.682 29.499C111.941 28.8733 113.227 28.222 114.352 27.6292C114.099 27.6735 113.841 27.7174 113.583 27.7569C108.572 28.5251 102.818 29.8403 97.6024 31.0325C96.4589 31.2939 95.3413 31.5494 94.2631 31.7919L94.2474 31.7954C81.6507 34.6284 69.0232 37.4683 56.2668 39.7407C55.5099 39.8755 54.7474 40.0371 53.9569 40.2048L53.9467 40.207C53.1671 40.3723 52.3601 40.5435 51.5481 40.6883C49.9179 40.979 48.1935 41.1783 46.4271 41.0189C46.0035 40.9807 45.4284 40.7667 45.1079 40.1613C44.8454 39.6654 44.9108 39.1793 44.9588 38.9473C45.0593 38.4604 45.3323 37.9641 45.5696 37.5779C46.0864 36.737 46.9077 35.6836 47.7359 34.6865C49.4008 32.6818 51.3078 30.6514 51.4664 30.4968C56.8496 25.2481 62.8296 20.9221 68.8959 16.841C70.7685 15.5812 72.6431 14.3487 74.5113 13.1203C78.7294 10.3467 82.9155 7.59425 86.9749 4.59708C87.7907 3.99472 88.4497 3.47842 88.9705 3.03941C88.4434 3.1378 87.8338 3.26868 87.147 3.43007C85.6094 3.7914 83.8175 4.27168 81.9231 4.77941ZM90.3957 1.60321C90.3958 1.60319 90.3947 1.60567 90.392 1.61075C90.3942 1.60578 90.3956 1.60324 90.3957 1.60321ZM81.2815 48.8587C81.2807 48.8589 81.2834 48.8518 81.292 48.8366C81.2865 48.8509 81.2822 48.8585 81.2815 48.8587Z" fill="#F7F7F7"/>
</svg>
