<svg width="141" height="71" viewBox="0 0 141 71" fill="none" xmlns="http://www.w3.org/2000/svg">
<path fill-rule="evenodd" clip-rule="evenodd" d="M108.464 18.5784C101.969 13.4468 93.9199 10.0956 85.6732 10.1468C83.0934 10.1629 79.7565 10.8891 76.4338 12.0078C73.1237 13.1223 69.945 14.5864 67.6937 15.9971C67.5069 16.1142 67.3205 16.2343 67.1347 16.3572C70.7899 19.707 73.6553 23.8897 75.4076 29.2594C76.2834 31.9429 76.219 35.2203 75.206 38.0084C74.1889 40.8077 72.1229 43.321 68.8564 44.0231C63.6494 45.1425 59.2619 41.715 56.8781 37.9518C53.8586 33.1851 54.3207 28.2193 56.4673 23.9402C57.9258 21.0327 60.1709 18.4067 62.6841 16.2645C59.2466 13.7297 55.1872 11.7431 50.6731 10.0578C36.4094 4.73272 17.4325 3.40811 2.1299 3.4094C1.36868 3.40946 0.751549 2.79244 0.751485 2.03122C0.75142 1.27001 1.36845 0.652877 2.12966 0.652813C17.4952 0.651514 36.8877 1.96885 51.6372 7.47536C56.5636 9.31457 61.0982 11.5524 64.9424 14.516C65.3692 14.2164 65.7992 13.9313 66.23 13.6613C68.7034 12.1113 72.088 10.5624 75.5542 9.39536C79.0078 8.23259 82.66 7.40891 85.6561 7.39029C94.654 7.33438 103.295 10.9811 110.173 16.4156C117.694 22.359 126.077 33.0777 129.672 42.1204C131.236 46.0562 132.132 50.4462 131.84 54.6367C132.666 54.5848 133.49 54.5391 134.313 54.4936C136.009 54.3995 137.698 54.306 139.379 54.159C140.137 54.0927 140.806 54.6537 140.872 55.412C140.938 56.1703 140.377 56.8388 139.619 56.9051C137.749 57.0686 135.951 57.1683 134.194 57.2656C133.272 57.3167 132.36 57.3672 131.456 57.426C130.558 61.7055 128.214 65.5912 123.876 68.2239C120.422 70.3192 116.716 70.9316 112.828 69.438C111.614 68.9717 110.245 68.2006 109.444 66.9907C109.025 66.358 108.762 65.6032 108.78 64.7506C108.798 63.9073 109.088 63.0711 109.603 62.2579C110.808 60.3554 112.836 59.0905 114.788 58.2107C116.748 57.3272 118.828 56.7486 120.334 56.33L120.366 56.3208C123.298 55.5055 126.192 55.0964 129.058 54.843C129.402 51.0507 128.615 46.9257 127.11 43.1387C123.712 34.5909 115.646 24.2535 108.464 18.5784ZM128.571 57.6543C126.095 57.8947 123.638 58.2722 121.105 58.9766C119.573 59.4026 117.675 59.933 115.92 60.7239C114.143 61.5249 112.706 62.5106 111.932 63.733C111.622 64.2218 111.541 64.5744 111.536 64.8087C111.531 65.0335 111.594 65.245 111.742 65.4691C112.076 65.9728 112.809 66.4777 113.816 66.8647C116.785 68.005 119.6 67.5937 122.445 65.8672C125.781 63.8429 127.702 60.9559 128.571 57.6543ZM64.871 18.0288C62.4286 20.0323 60.272 22.5035 58.9312 25.1763C57.1155 28.7958 56.8172 32.7043 59.2068 36.4767C61.3031 39.7861 64.7026 42.0965 68.2771 41.3281C70.3327 40.8862 71.8089 39.2858 72.6151 37.0671C73.4253 34.8372 73.4651 32.1924 72.7871 30.1146C71.1453 25.0838 68.4268 21.1732 64.871 18.0288Z" fill="#F7F7F7"/>
</svg>
