<svg width="24" height="24" viewBox="0 0 24 24" fill="none" xmlns="http://www.w3.org/2000/svg">
<path d="M6.99793 20.0033C5.61665 20.0033 4.49689 18.8836 4.49689 17.5023V14.501C4.49689 13.8377 4.23339 13.2016 3.76435 12.7325C3.29532 12.2635 2.65917 12 1.99585 12C2.65917 12 3.29532 11.7365 3.76435 11.2674C4.23339 10.7984 4.49689 10.1623 4.49689 9.49893V6.49768C4.49689 5.1164 5.61665 3.99664 6.99793 3.99664" stroke="#636363" stroke-width="1.5" stroke-linecap="round" stroke-linejoin="round"/>
<path d="M17.0021 3.99664C18.3834 3.99664 19.5031 5.1164 19.5031 6.49768V9.49893C19.5031 10.8802 20.6229 12 22.0042 12C20.6229 12 19.5031 13.1197 19.5031 14.501V17.5023C19.5031 18.8836 18.3834 20.0033 17.0021 20.0033" stroke="#636363" stroke-width="1.5" stroke-linecap="round" stroke-linejoin="round"/>
<path d="M8.67364 12.0821C8.67364 12.0544 8.65125 12.032 8.62362 12.032C8.596 12.032 8.5736 12.0544 8.5736 12.0821C8.5736 12.1097 8.596 12.1321 8.62362 12.1321C8.65125 12.1321 8.67364 12.1097 8.67364 12.0821" stroke="#636363" stroke-width="1.5" stroke-linecap="round" stroke-linejoin="round"/>
<path d="M12.05 12.073C12.05 12.0454 12.0276 12.023 12 12.023C11.9723 12.023 11.9499 12.0454 11.9499 12.073C11.9499 12.1006 11.9723 12.123 12 12.123C12.0276 12.123 12.05 12.1006 12.05 12.073" stroke="#636363" stroke-width="1.5" stroke-linecap="round" stroke-linejoin="round"/>
<path d="M15.0512 12.073C15.0512 12.0454 15.0288 12.023 15.0012 12.023C14.9736 12.023 14.9512 12.0454 14.9512 12.073C14.9512 12.1006 14.9736 12.123 15.0012 12.123C15.0288 12.123 15.0512 12.1006 15.0512 12.073" stroke="#636363" stroke-width="1.5" stroke-linecap="round" stroke-linejoin="round"/>
</svg>
