<svg width="24" height="24" viewBox="0 0 24 24" fill="none" xmlns="http://www.w3.org/2000/svg">
<path fill-rule="evenodd" clip-rule="evenodd" d="M18.0025 17.002H5.99747C4.33992 17.002 2.99622 15.6583 2.99622 14.0008V5.99747C2.99622 4.33992 4.33992 2.99622 5.99747 2.99622H18.0025C19.66 2.99622 21.0037 4.33992 21.0037 5.99747V14.0008C21.0037 15.6583 19.66 17.002 18.0025 17.002Z" stroke="#636363" stroke-width="1.5" stroke-linecap="round" stroke-linejoin="round"/>
<path d="M14.0008 17.0021L14.501 21.0037" stroke="#636363" stroke-width="1.5" stroke-linecap="round" stroke-linejoin="round"/>
<path d="M9.99921 17.0021L9.49901 21.0037" stroke="#636363" stroke-width="1.5" stroke-linecap="round" stroke-linejoin="round"/>
<path d="M7.198 21.0037H16.802" stroke="#636363" stroke-width="1.5" stroke-linecap="round" stroke-linejoin="round"/>
<path d="M16.7982 9.9801L15.2939 11.4843" stroke="#636363" stroke-width="1.5" stroke-linecap="round" stroke-linejoin="round"/>
<path d="M15.3112 8.49347L16.7982 9.9801" stroke="#636363" stroke-width="1.5" stroke-linecap="round" stroke-linejoin="round"/>
<path d="M8.70613 11.4951L7.2019 9.99121" stroke="#636363" stroke-width="1.5" stroke-linecap="round" stroke-linejoin="round"/>
<path d="M8.68899 8.50415L7.2019 9.99123" stroke="#636363" stroke-width="1.5" stroke-linecap="round" stroke-linejoin="round"/>
<path d="M12.7578 7.49811L11.2535 12.5002" stroke="#636363" stroke-width="1.5" stroke-linecap="round" stroke-linejoin="round"/>
</svg>
