<svg width="207" height="54" viewBox="0 0 207 54" fill="none" xmlns="http://www.w3.org/2000/svg">
<path d="M26.8715 0C12.0271 0 0 12.0271 0 26.8715C0 41.7159 12.0271 53.743 26.8715 53.743C41.7159 53.743 53.743 41.7159 53.743 26.8715C53.743 12.0271 41.7159 0 26.8715 0ZM11.6483 37.0282L15.2469 16.7148H20.4081L16.8331 37.0282H11.6483ZM24.9775 35.9628C24.9775 36.5547 24.5039 37.0519 23.8884 37.0519H20.8816C20.2897 37.0519 19.7926 36.5784 19.7926 35.9628V32.956C19.7926 32.3405 20.2661 31.867 20.8816 31.867H23.8884C24.4803 31.867 24.9775 32.3405 24.9775 32.956V35.9628ZM32.7193 37.0282H27.5581L31.133 16.7148H36.3179L32.7193 37.0282ZM43.4442 20.8106C43.4442 21.4025 42.9707 21.8997 42.3551 21.8997H39.3484C38.7565 21.8997 38.2593 21.4262 38.2593 20.8106V17.7802C38.283 17.1883 38.7565 16.7148 39.3484 16.7148H42.3551C42.947 16.7148 43.4442 17.1883 43.4442 17.8038V20.8106Z" fill="#F7F7F7"/>
<path d="M62.6211 35.8206V18.2535H66.3381V32.7665H73.8669V35.8206H62.6211Z" fill="#F7F7F7"/>
<path d="M84.7102 30.2096V22.6335H88.3562V35.8207H84.8523V33.4295H84.7102C84.4025 34.2108 83.9289 34.8263 83.2187 35.2998C82.5321 35.7733 81.6798 36.0101 80.7091 36.0101C79.8331 36.0101 79.0518 35.8207 78.3889 35.4182C77.726 35.0157 77.2052 34.4475 76.8264 33.7136C76.4475 32.9797 76.2581 32.1037 76.2581 31.062V22.6572H79.9041V30.399C79.9041 31.1803 80.1172 31.7959 80.5197 32.2457C80.9222 32.6956 81.4904 32.9323 82.177 32.9323C82.6268 32.9323 83.0293 32.8376 83.4081 32.6245C83.7869 32.4114 84.0947 32.1273 84.3314 31.7249C84.6155 31.2987 84.7102 30.8015 84.7102 30.2096Z" fill="#F7F7F7"/>
<path d="M93.1151 20.9526C92.5705 20.9526 92.097 20.7632 91.7182 20.408C91.3394 20.0529 91.15 19.6031 91.15 19.1059C91.15 18.6087 91.3394 18.1589 91.7182 17.8037C92.097 17.4486 92.5705 17.2592 93.1151 17.2592C93.6596 17.2592 94.1331 17.4486 94.5119 17.8037C94.8907 18.1589 95.0801 18.6087 95.0801 19.1059C95.0801 19.6267 94.8907 20.0529 94.5119 20.408C94.1331 20.7632 93.6596 20.9526 93.1151 20.9526ZM91.2921 35.8207V22.6572H94.9381V35.8443L91.2921 35.8207Z" fill="#F7F7F7"/>
<path d="M97.7789 35.8207V33.6426L104.219 25.664V25.5693H98.0156V22.6573H108.646V25.0248L102.585 32.814V32.9087H108.859V35.8207H97.7789Z" fill="#F7F7F7"/>
<path d="M117.335 35.8206V18.2535H124.272C125.597 18.2535 126.734 18.4903 127.681 18.9638C128.628 19.4373 129.338 20.1002 129.835 20.9525C130.332 21.8048 130.569 22.8229 130.569 23.983C130.569 25.143 130.309 26.1611 129.812 26.9897C129.314 27.8184 128.58 28.4813 127.633 28.9074C126.686 29.3572 125.526 29.5703 124.177 29.5703H119.536V26.5872H123.585C124.295 26.5872 124.887 26.4925 125.361 26.3031C125.834 26.1137 126.189 25.806 126.402 25.4271C126.639 25.0483 126.757 24.5512 126.757 23.983C126.757 23.3911 126.639 22.9176 126.402 22.5151C126.166 22.1126 125.81 21.8048 125.337 21.5917C124.863 21.3787 124.272 21.284 123.561 21.284H121.052V35.8206H117.335ZM126.828 27.8184L131.185 35.8206H127.089L122.827 27.8184H126.828Z" fill="#F7F7F7"/>
<path d="M134.973 20.9526C134.428 20.9526 133.955 20.7632 133.576 20.408C133.197 20.0529 133.008 19.6031 133.008 19.1059C133.008 18.6087 133.197 18.1589 133.576 17.8037C133.955 17.4486 134.428 17.2592 134.973 17.2592C135.517 17.2592 135.991 17.4486 136.37 17.8037C136.748 18.1589 136.938 18.6087 136.938 19.1059C136.938 19.6267 136.748 20.0529 136.37 20.408C135.967 20.7632 135.517 20.9526 134.973 20.9526ZM133.126 35.8207V22.6572H136.772V35.8443L133.126 35.8207Z" fill="#F7F7F7"/>
<path d="M145.65 36.0809C144.301 36.0809 143.141 35.7968 142.17 35.2286C141.199 34.6604 140.465 33.8555 139.945 32.8374C139.424 31.8194 139.163 30.6356 139.163 29.3098C139.163 27.9603 139.424 26.7765 139.945 25.7585C140.465 24.7405 141.223 23.9355 142.17 23.3673C143.117 22.7991 144.277 22.515 145.627 22.515C146.787 22.515 147.781 22.7281 148.657 23.1305C149.509 23.5567 150.196 24.1249 150.717 24.8825C151.214 25.6401 151.498 26.5161 151.545 27.5342H148.089C147.994 26.8712 147.734 26.3504 147.331 25.9479C146.905 25.5454 146.384 25.3323 145.698 25.3323C145.129 25.3323 144.632 25.4744 144.23 25.7822C143.804 26.09 143.472 26.5398 143.259 27.108C143.022 27.6999 142.904 28.3865 142.904 29.2388C142.904 30.0911 143.022 30.8013 143.259 31.3932C143.496 31.9851 143.827 32.4349 144.23 32.7427C144.656 33.0505 145.153 33.2162 145.721 33.2162C146.148 33.2162 146.526 33.1215 146.858 32.9558C147.189 32.7901 147.473 32.5296 147.686 32.1982C147.899 31.8667 148.042 31.4643 148.113 31.0144H151.569C151.522 32.0325 151.238 32.9084 150.741 33.6661C150.243 34.4237 149.58 35.0155 148.728 35.4654C147.828 35.8679 146.834 36.0809 145.65 36.0809Z" fill="#F7F7F7"/>
<path d="M157.654 36.0811C156.802 36.0811 156.068 35.9391 155.405 35.6313C154.742 35.3235 154.221 34.8974 153.842 34.3292C153.463 33.7373 153.274 33.027 153.274 32.151C153.274 31.4171 153.416 30.8016 153.676 30.3044C153.937 29.8072 154.316 29.4047 154.765 29.0969C155.239 28.7892 155.76 28.5761 156.352 28.4103C156.944 28.2446 157.559 28.1499 158.222 28.0789C158.98 28.0079 159.595 27.9132 160.069 27.8421C160.542 27.7711 160.874 27.6527 161.087 27.5107C161.3 27.3686 161.395 27.1556 161.395 26.8714V26.8241C161.395 26.2796 161.229 25.8534 160.874 25.5693C160.542 25.2615 160.045 25.1195 159.43 25.1195C158.767 25.1195 158.246 25.2615 157.867 25.5456C157.488 25.8297 157.228 26.1849 157.086 26.6347L153.7 26.3506C153.866 25.5456 154.197 24.859 154.718 24.2672C155.215 23.6753 155.878 23.2255 156.66 22.9177C157.441 22.6099 158.388 22.4442 159.43 22.4442C160.163 22.4442 160.874 22.5389 161.537 22.7046C162.2 22.8703 162.815 23.1308 163.336 23.5096C163.857 23.8647 164.283 24.3382 164.567 24.9064C164.875 25.4746 165.017 26.1375 165.017 26.9188V35.797H161.56V33.974H161.466C161.253 34.3765 160.968 34.7553 160.613 35.0631C160.258 35.3709 159.832 35.6076 159.335 35.797C158.861 35.9864 158.293 36.0811 157.654 36.0811ZM158.696 33.5479C159.24 33.5479 159.714 33.4295 160.116 33.2164C160.519 33.0034 160.85 32.7193 161.087 32.3404C161.324 31.9853 161.442 31.5592 161.442 31.0857V29.6888C161.324 29.7598 161.182 29.8309 160.968 29.9019C160.779 29.9729 160.542 30.0203 160.306 30.0676C160.069 30.115 159.808 30.1623 159.572 30.186C159.335 30.2333 159.098 30.257 158.909 30.2807C158.483 30.3517 158.104 30.4464 157.796 30.5885C157.464 30.7305 157.228 30.9199 157.038 31.133C156.849 31.3698 156.778 31.6539 156.778 31.9853C156.778 32.4825 156.967 32.8613 157.322 33.1217C157.678 33.3822 158.127 33.5479 158.696 33.5479Z" fill="#F7F7F7"/>
<path d="M169.231 35.8208V22.6573H172.782V24.9538H172.924C173.161 24.1252 173.564 23.5096 174.132 23.1071C174.7 22.7047 175.339 22.4679 176.097 22.4679C176.286 22.4679 176.476 22.4679 176.689 22.4916C176.902 22.5153 177.091 22.5389 177.257 22.5863V25.8298C177.091 25.7825 176.854 25.7351 176.547 25.6878C176.239 25.6404 175.955 25.6167 175.718 25.6167C175.174 25.6167 174.7 25.7351 174.274 25.9719C173.848 26.2086 173.516 26.5164 173.28 26.9425C173.043 27.345 172.924 27.8185 172.924 28.3631V35.8208H169.231Z" fill="#F7F7F7"/>
<path d="M183.342 36.0337C182.347 36.0337 181.424 35.7733 180.619 35.2524C179.814 34.7316 179.175 33.974 178.701 32.9559C178.228 31.9379 177.991 30.7068 177.991 29.2389C177.991 27.7237 178.228 26.4689 178.725 25.4745C179.222 24.4802 179.861 23.7226 180.666 23.2254C181.471 22.7282 182.371 22.4678 183.342 22.4678C184.076 22.4678 184.691 22.5861 185.188 22.8466C185.686 23.107 186.088 23.4148 186.396 23.7699C186.704 24.1487 186.94 24.5038 187.106 24.859H187.224V18.2536H190.87V35.8206H187.272V33.7135H187.106C186.94 34.0687 186.704 34.4475 186.372 34.8026C186.041 35.1577 185.662 35.4655 185.165 35.7023C184.668 35.9153 184.052 36.0337 183.342 36.0337ZM184.502 33.1216C185.094 33.1216 185.591 32.9559 185.993 32.6481C186.396 32.3167 186.727 31.8669 186.94 31.2987C187.153 30.7304 187.272 30.0202 187.272 29.2389C187.272 28.4576 187.153 27.771 186.94 27.2028C186.727 26.6346 186.419 26.1848 185.993 25.8533C185.591 25.5456 185.07 25.3798 184.502 25.3798C183.91 25.3798 183.389 25.5456 182.987 25.877C182.584 26.2085 182.253 26.6583 182.04 27.2265C181.826 27.7947 181.732 28.4813 181.732 29.2389C181.732 29.9965 181.85 30.6831 182.063 31.275C182.276 31.8669 182.584 32.3167 182.987 32.6481C183.413 32.9559 183.91 33.1216 184.502 33.1216Z" fill="#F7F7F7"/>
<path d="M199.796 36.0808C198.47 36.0808 197.31 35.7967 196.34 35.2285C195.369 34.6603 194.611 33.8553 194.09 32.8373C193.57 31.8192 193.309 30.6355 193.309 29.286C193.309 27.9365 193.57 26.729 194.09 25.711C194.611 24.693 195.369 23.888 196.34 23.3198C197.31 22.7516 198.47 22.4675 199.796 22.4675C201.122 22.4675 202.282 22.7516 203.253 23.3198C204.223 23.888 204.981 24.693 205.502 25.711C206.023 26.729 206.283 27.9128 206.283 29.286C206.283 30.6355 206.023 31.8192 205.502 32.8373C204.981 33.8553 204.223 34.6603 203.253 35.2285C202.282 35.7967 201.122 36.0808 199.796 36.0808ZM199.82 33.2397C200.435 33.2397 200.933 33.074 201.335 32.7189C201.738 32.3638 202.045 31.8903 202.258 31.2984C202.471 30.7065 202.566 30.0199 202.566 29.2386C202.566 28.481 202.471 27.7944 202.258 27.1789C202.045 26.587 201.738 26.1135 201.335 25.7584C200.933 25.4032 200.412 25.2375 199.82 25.2375C199.204 25.2375 198.683 25.4032 198.281 25.7584C197.855 26.1135 197.547 26.587 197.334 27.1789C197.121 27.7708 197.026 28.4573 197.026 29.2386C197.026 29.9962 197.121 30.6828 197.334 31.2984C197.547 31.8903 197.855 32.3638 198.281 32.7189C198.683 33.074 199.204 33.2397 199.82 33.2397Z" fill="#F7F7F7"/>
</svg>
